<svg xmlns="http://www.w3.org/2000/svg" viewBox="0 0 185 91.4" enable-background="new 0 0 185 91.4"><path opacity=".3" d="M22.5 45.5h149.8v43.8h-149.8z"/><path fill="#929497" d="M6.2 28.9c-3.4 0-6.2 2.7-6.2 6.1v21.8c0 3.4 2.7 6.1 6.1 6.2h7.7v-34.1h-7.6z"/><path fill="#D1D2D3" d="M8.3 0h14.2v45.9h-14.2z"/><path fill="#A6A8AC" d="M8.3 45.5h14.2v45.9h-14.2z"/><path opacity=".2" d="M22.5 2.1h149.8v43.4h-149.8z"/><path fill="#929497" d="M178.8 28.9c3.4 0 6.2 2.8 6.2 6.2v21.8c0 3.4-2.7 6.1-6.1 6.2h-7.7v-34.2h7.6z"/><path fill="#D1D2D3" d="M161.1 0h14.2v46.1h-14.2z"/><path fill="#A6A8AC" d="M161.1 45.2h14.2v46.1h-14.2z"/></svg>