<svg xmlns="http://www.w3.org/2000/svg" viewBox="0 0 58 41.5" enable-background="new 0 0 58 41.5"><path fill="#F15B2A" d="M20.2 0h37.8v28.9h-37.8z"/><path fill="#EDC41B" d="M0 19.9v9h20.2v-21.9h-16.6z"/><path fill="#C0BFBF" d="M0 28.9h58v6.5h-58z"/><path fill="#9A9A9A" d="M0 28.9h58v1.9h-58z"/><circle fill="#231F20" cx="45.5" cy="35.9" r="5.6"/><circle fill="#fff" cx="45.5" cy="35.9" r="2.8"/><path fill="#C9992C" d="M3.4 18h10.8v8.3h-10.8z"/><path fill="#270E2F" d="M3.4 18h10.8v-8.5h-8.5z"/><circle fill="#231F20" cx="12.2" cy="35.9" r="5.6"/><circle fill="#fff" cx="12.2" cy="35.9" r="2.8"/><path fill="#B73F26" d="M23.679 9.417l6.434-6.436 1.556 1.555-6.434 6.436zm7.1 0l6.435-6.435 1.556 1.556-6.435 6.435zm7.1 0l6.435-6.435 1.556 1.556-6.435 6.435z"/></svg>