<svg xmlns="http://www.w3.org/2000/svg" viewBox="0 0 119.7 43.8" enable-background="new 0 0 119.7 43.8"><path fill="#2DB074" d="M91.2 15.4h-71.4c-9.8 0-17.9 6.9-19.8 16.1v.3-.1l.1.4.4.1.1-.2 3.3 2.6-.1 1h77.6c13.4-.3 24.9-8.5 29.8-20.2h-20z"/><path fill="#fff" d="M91.2 15.4h-71.4c-6.9 0-12.9 3.4-16.6 8.7h102.6c2.2-2.6 4-5.5 5.4-8.7h-20zm0 0h-71.4c-6.9 0-12.9 3.4-16.6 8.7h102.6c2.2-2.6 4-5.5 5.4-8.7h-20z"/><path fill="#034960" d="M17.8 20.4h-11.2c-2.3 2-4.1 4.5-5.3 7.4h16.6c2 0 3.7-1.6 3.7-3.7-.1-2-1.8-3.7-3.8-3.7z"/><path fill="#2DB074" d="M12.3 31.9h-12.3c0 2.1 1.7 3.7 3.7 3.7h77.7c5.3-.1 10.3-1.5 14.7-3.8h-83.8z"/><circle fill="#416F76" cx="43.8" cy="36.3" r="3.9"/><path fill="#8ECEA9" d="M41.8 31.9h8.4v8.8h-8.4z"/><path fill="#468A79" d="M68.4 38.7l-18.3 2v-8.8h18.3z"/><path fill="#C4E2D3" d="M93.9 27.7c0 .9-.8 1.7-1.7 1.7h-4.2c-.9 0-1.7-.8-1.7-1.7v-6.9c0-.9.8-1.7 1.7-1.7h4.2c.9 0 1.7.8 1.7 1.7v6.9z"/><circle fill="#034960" cx="76" cy="24" r="4"/><circle fill="#034960" cx="64.9" cy="24.1" r="4"/><circle fill="#034960" cx="53.7" cy="24.2" r="4"/><circle fill="#034960" cx="42.6" cy="24.4" r="4"/><circle fill="#034960" cx="31.4" cy="24.5" r="4"/><path fill="#fff" d="M88.2 42.8h-13.9l-27.4-10.9h22.3z"/><path fill="#E7E7E7" d="M111.3 15.4h-13.2l9.4 6.7c1.8-2.5 2.5-3.7 3.8-6.7z"/><path fill="#8ECEA9" d="M118.8 20.7h-12l-14.9-5.3h19.6z"/><path fill="#BF2E29" d="M111.6 15.4h-19.2l10.9-14.4h10.2z"/><path fill="#DC4629" d="M114.8 1c0 .6-.5 1-1 1h-11.8c-.6 0-1-.5-1-1 0-.6.5-1 1-1h11.8c.6 0 1 .5 1 1z"/><path fill="#C8E8E1" d="M119.7 20.8c0 .6-.5 1-1 1h-11.8c-.6 0-1-.5-1-1 0-.6.5-1 1-1h11.8c.5-.1 1 .4 1 1z"/><path fill="#fff" d="M88.7 42.8c0 .6-.5 1-1 1h-13.3c-.6 0-1-.5-1-1 0-.6.5-1 1-1h13.2c.6 0 1.1.5 1.1 1z"/></svg>