<svg xmlns="http://www.w3.org/2000/svg" viewBox="0 0 348.3 323.9" enable-background="new 0 0 348.3 323.9"><path fill="#03283A" d="M-5.7-7h361v337.9h-361z"/><circle opacity=".2" cx="14.9" cy="12.9" r="3.6"/><path opacity=".2" d="M12.2 8.2l-4.7-8.2c-4.5 2.6-7.5 7.4-7.5 12.9h9.5c0-2 1.1-3.7 2.7-4.7zm5.5 9.4c-.8.5-1.8.8-2.8.8s-2-.3-2.8-.8l-4.7 8.2c2.2 1.3 4.8 2 7.5 2s5.3-.8 7.5-2l-4.7-8.2zm2.6-4.7h9.5c0-5.5-3-10.3-7.5-12.9l-4.7 8.2c1.6 1 2.7 2.7 2.7 4.7z"/><circle opacity=".2" cx="56.9" cy="12.9" r="3.6"/><path opacity=".2" d="M54.2 8.2l-4.7-8.2c-4.5 2.6-7.5 7.4-7.5 12.9h9.5c0-2 1.1-3.7 2.7-4.7zm5.5 9.4c-.8.5-1.8.8-2.8.8s-2-.3-2.8-.8l-4.7 8.2c2.2 1.3 4.8 2 7.5 2s5.3-.8 7.5-2l-4.7-8.2zm2.6-4.7h9.5c0-5.5-3-10.3-7.5-12.9l-4.7 8.2c1.6 1 2.7 2.7 2.7 4.7z"/><circle opacity=".2" cx="35.9" cy="52.5" r="3.6"/><path opacity=".2" d="M33.2 47.8l-4.7-8.2c-4.5 2.6-7.5 7.4-7.5 12.9h9.5c0-2 1.1-3.7 2.7-4.7zm5.5 9.4c-.8.5-1.8.8-2.8.8s-2-.3-2.8-.8l-4.7 8.2c2.2 1.3 4.8 2 7.5 2s5.3-.8 7.5-2l-4.7-8.2zm2.7-4.7h9.5c0-5.5-3-10.3-7.5-12.9l-4.7 8.2c1.5 1 2.7 2.7 2.7 4.7z"/><circle opacity=".2" cx="77.9" cy="52.5" r="3.6"/><path opacity=".2" d="M75.2 47.8l-4.7-8.2c-4.5 2.6-7.5 7.4-7.5 12.9h9.5c0-2 1.1-3.7 2.7-4.7zm5.5 9.4c-.8.5-1.8.8-2.8.8s-2-.3-2.8-.8l-4.7 8.2c2.2 1.3 4.8 2 7.5 2s5.3-.8 7.5-2l-4.7-8.2zm2.7-4.7h9.5c0-5.5-3-10.3-7.5-12.9l-4.7 8.2c1.5 1 2.7 2.7 2.7 4.7z"/><circle opacity=".2" cx="14.9" cy="92.7" r="3.6"/><path opacity=".2" d="M12.2 88.1l-4.7-8.2c-4.5 2.5-7.5 7.3-7.5 12.8h9.5c0-2 1.1-3.7 2.7-4.6zm5.5 9.3c-.8.5-1.8.8-2.8.8s-2-.3-2.8-.8l-4.7 8.2c2.2 1.3 4.8 2 7.5 2s5.3-.8 7.5-2l-4.7-8.2zm2.6-4.7h9.5c0-5.5-3-10.3-7.5-12.9l-4.7 8.2c1.6 1 2.7 2.7 2.7 4.7z"/><circle opacity=".2" cx="56.9" cy="92.7" r="3.6"/><path opacity=".2" d="M54.2 88.1l-4.7-8.2c-4.5 2.5-7.5 7.3-7.5 12.8h9.5c0-2 1.1-3.7 2.7-4.6zm5.5 9.3c-.8.5-1.8.8-2.8.8-1 0-2-.3-2.8-.8l-4.7 8.2c2.2 1.3 4.8 2 7.5 2s5.3-.8 7.5-2l-4.7-8.2zm2.6-4.7h9.5c0-5.5-3-10.3-7.5-12.9l-4.7 8.2c1.6 1 2.7 2.7 2.7 4.7z"/><circle opacity=".2" cx="35.9" cy="134.6" r="3.6"/><path opacity=".2" d="M33.2 129.9l-4.7-8.2c-4.5 2.6-7.5 7.4-7.5 12.9h9.5c0-2 1.1-3.8 2.7-4.7zm5.5 9.3c-.8.5-1.8.8-2.8.8s-2-.3-2.8-.8l-4.7 8.2c2.2 1.3 4.8 2 7.5 2s5.3-.8 7.5-2l-4.7-8.2zm2.7-4.6h9.5c0-5.5-3-10.3-7.5-12.9l-4.7 8.2c1.5.9 2.7 2.7 2.7 4.7z"/><circle opacity=".2" cx="77.9" cy="134.6" r="3.6"/><path opacity=".2" d="M75.2 129.9l-4.7-8.2c-4.5 2.6-7.5 7.4-7.5 12.9h9.5c0-2 1.1-3.8 2.7-4.7zm5.5 9.3c-.8.5-1.8.8-2.8.8s-2-.3-2.8-.8l-4.7 8.2c2.2 1.3 4.8 2 7.5 2s5.3-.8 7.5-2l-4.7-8.2zm2.7-4.6h9.5c0-5.5-3-10.3-7.5-12.9l-4.7 8.2c1.5.9 2.7 2.7 2.7 4.7z"/><circle opacity=".2" cx="14.9" cy="174.7" r="3.6"/><path opacity=".2" d="M12.2 170.1l-4.7-8.2c-4.5 2.5-7.5 7.3-7.5 12.8h9.5c0-2 1.1-3.7 2.7-4.6zm5.5 9.3c-.8.5-1.8.8-2.8.8s-2-.3-2.8-.8l-4.7 8.2c2.2 1.3 4.8 2 7.5 2s5.3-.8 7.5-2l-4.7-8.2zm2.6-4.7h9.5c0-5.5-3-10.3-7.5-12.9l-4.7 8.2c1.6 1 2.7 2.7 2.7 4.7z"/><circle opacity=".2" cx="56.9" cy="174.7" r="3.6"/><path opacity=".2" d="M54.2 170.1l-4.7-8.2c-4.5 2.6-7.5 7.4-7.5 12.9h9.5c0-2.1 1.1-3.8 2.7-4.7zm5.5 9.3c-.8.5-1.8.8-2.8.8s-2-.3-2.8-.8l-4.7 8.2c2.2 1.3 4.8 2 7.5 2s5.3-.8 7.5-2l-4.7-8.2zm2.6-4.7h9.5c0-5.5-3-10.3-7.5-12.9l-4.7 8.2c1.6 1 2.7 2.7 2.7 4.7z"/><circle opacity=".2" cx="35.9" cy="214.3" r="3.6"/><path opacity=".2" d="M33.2 209.7l-4.7-8.2c-4.5 2.5-7.5 7.3-7.5 12.8h9.5c0-2 1.1-3.7 2.7-4.6zm5.5 9.3c-.8.5-1.8.8-2.8.8s-2-.3-2.8-.8l-4.7 8.2c2.2 1.3 4.8 2 7.5 2s5.3-.8 7.5-2l-4.7-8.2zm2.7-4.7h9.5c0-5.5-3-10.3-7.5-12.9l-4.7 8.2c1.5 1 2.7 2.7 2.7 4.7z"/><circle opacity=".2" cx="77.9" cy="214.3" r="3.6"/><path opacity=".2" d="M75.2 209.7l-4.7-8.2c-4.5 2.5-7.5 7.3-7.5 12.8h9.5c0-2 1.1-3.7 2.7-4.6zm5.5 9.3c-.8.5-1.8.8-2.8.8s-2-.3-2.8-.8l-4.7 8.2c2.2 1.3 4.8 2 7.5 2s5.3-.8 7.5-2l-4.7-8.2zm2.7-4.7h9.5c0-5.5-3-10.3-7.5-12.9l-4.7 8.2c1.5 1 2.7 2.7 2.7 4.7z"/><circle opacity=".2" cx="14.9" cy="254.6" r="3.6"/><path opacity=".2" d="M12.2 249.9l-4.7-8.2c-4.5 2.6-7.5 7.4-7.5 12.9h9.5c0-2 1.1-3.8 2.7-4.7zm5.5 9.3c-.8.5-1.8.8-2.8.8s-2-.3-2.8-.8l-4.7 8.2c2.2 1.3 4.8 2 7.5 2s5.3-.8 7.5-2l-4.7-8.2zm2.6-4.6h9.5c0-5.5-3-10.3-7.5-12.9l-4.7 8.2c1.6.9 2.7 2.7 2.7 4.7z"/><circle opacity=".2" cx="56.9" cy="254.6" r="3.6"/><path opacity=".2" d="M54.2 249.9l-4.7-8.2c-4.5 2.6-7.5 7.4-7.5 12.9h9.5c0-2 1.1-3.8 2.7-4.7zm5.5 9.3c-.8.5-1.8.8-2.8.8s-2-.3-2.8-.8l-4.7 8.2c2.2 1.3 4.8 2 7.5 2s5.3-.8 7.5-2l-4.7-8.2zm2.6-4.6h9.5c0-5.5-3-10.3-7.5-12.9l-4.7 8.2c1.6.9 2.7 2.7 2.7 4.7z"/><circle opacity=".2" cx="35.9" cy="296.4" r="3.6"/><path opacity=".2" d="M33.2 291.7l-4.7-8.2c-4.5 2.6-7.5 7.4-7.5 12.9h9.5c0-2 1.1-3.7 2.7-4.7zm5.5 9.4c-.8.5-1.8.8-2.8.8s-2-.3-2.8-.8l-4.7 8.2c2.2 1.3 4.8 2 7.5 2s5.3-.8 7.5-2l-4.7-8.2zm2.7-4.7h9.5c0-5.5-3-10.3-7.5-12.9l-4.7 8.2c1.5 1 2.7 2.7 2.7 4.7z"/><circle opacity=".2" cx="77.9" cy="296.4" r="3.6"/><path opacity=".2" d="M75.2 291.7l-4.7-8.2c-4.5 2.6-7.5 7.4-7.5 12.9h9.5c0-2 1.1-3.7 2.7-4.7zm5.5 9.4c-.8.5-1.8.8-2.8.8s-2-.3-2.8-.8l-4.7 8.2c2.2 1.3 4.8 2 7.5 2s5.3-.8 7.5-2l-4.7-8.2zm2.7-4.7h9.5c0-5.5-3-10.3-7.5-12.9l-4.7 8.2c1.5 1 2.7 2.7 2.7 4.7z"/><circle opacity=".2" cx="98.7" cy="12.9" r="3.6"/><path opacity=".2" d="M96 8.2l-4.7-8.2c-4.5 2.6-7.5 7.4-7.5 12.9h9.5c0-2 1.1-3.7 2.7-4.7zm5.5 9.4c-.8.5-1.8.8-2.8.8s-2-.3-2.8-.8l-4.7 8.2c2.2 1.3 4.8 2 7.5 2s5.3-.8 7.5-2l-4.7-8.2zm2.7-4.7h9.5c0-5.5-3-10.3-7.5-12.9l-4.7 8.2c1.6 1 2.7 2.7 2.7 4.7z"/><circle opacity=".2" cx="140.7" cy="12.9" r="3.6"/><path opacity=".2" d="M138 8.2l-4.7-8.2c-4.5 2.6-7.5 7.4-7.5 12.9h9.5c0-2 1.1-3.7 2.7-4.7zm5.5 9.4c-.8.5-1.8.8-2.8.8-1 0-2-.3-2.8-.8l-4.7 8.2c2.2 1.3 4.8 2 7.5 2s5.3-.8 7.5-2l-4.7-8.2zm2.7-4.7h9.5c0-5.5-3-10.3-7.5-12.9l-4.7 8.2c1.6 1 2.7 2.7 2.7 4.7z"/><circle opacity=".2" cx="119.8" cy="52.5" r="3.6"/><path opacity=".2" d="M117 47.8l-4.7-8.2c-4.5 2.6-7.5 7.4-7.5 12.9h9.5c0-2 1.1-3.7 2.7-4.7zm5.5 9.4c-.8.5-1.8.8-2.8.8s-2-.3-2.8-.8l-4.7 8.2c2.2 1.3 4.8 2 7.5 2s5.3-.8 7.5-2l-4.7-8.2zm2.7-4.7h9.5c0-5.5-3-10.3-7.5-12.9l-4.7 8.2c1.6 1 2.7 2.7 2.7 4.7z"/><circle opacity=".2" cx="161.8" cy="52.5" r="3.6"/><path opacity=".2" d="M159 47.8l-4.7-8.2c-4.5 2.6-7.5 7.4-7.5 12.9h9.5c0-2 1.1-3.7 2.7-4.7zm5.5 9.4c-.8.5-1.8.8-2.8.8-1 0-2-.3-2.8-.8l-4.7 8.2c2.2 1.3 4.8 2 7.5 2s5.3-.8 7.5-2l-4.7-8.2zm2.7-4.7h9.5c0-5.5-3-10.3-7.5-12.9l-4.7 8.2c1.6 1 2.7 2.7 2.7 4.7z"/><circle opacity=".2" cx="98.7" cy="92.7" r="3.6"/><path opacity=".2" d="M96 88.1l-4.7-8.2c-4.5 2.6-7.5 7.4-7.5 12.9h9.5c0-2.1 1.1-3.8 2.7-4.7zm5.5 9.3c-.8.5-1.8.8-2.8.8s-2-.3-2.8-.8l-4.7 8.2c2.2 1.3 4.8 2 7.5 2s5.3-.8 7.5-2l-4.7-8.2zm2.7-4.7h9.5c0-5.5-3-10.3-7.5-12.9l-4.7 8.2c1.6 1 2.7 2.7 2.7 4.7z"/><circle opacity=".2" cx="140.7" cy="92.7" r="3.6"/><path opacity=".2" d="M138 88.1l-4.7-8.2c-4.5 2.6-7.5 7.4-7.5 12.9h9.5c0-2.1 1.1-3.8 2.7-4.7zm5.5 9.3c-.8.5-1.8.8-2.8.8-1 0-2-.3-2.8-.8l-4.7 8.2c2.2 1.3 4.8 2 7.5 2s5.3-.8 7.5-2l-4.7-8.2zm2.7-4.7h9.5c0-5.5-3-10.3-7.5-12.9l-4.7 8.2c1.6 1 2.7 2.7 2.7 4.7z"/><circle opacity=".2" cx="119.8" cy="134.6" r="3.6"/><path opacity=".2" d="M117.1 129.9l-4.7-8.2c-4.5 2.6-7.5 7.4-7.5 12.9h9.5c-.1-2 1-3.8 2.7-4.7zm5.4 9.3c-.8.5-1.8.8-2.8.8-1 0-2-.3-2.8-.8l-4.7 8.2c2.2 1.3 4.8 2 7.5 2s5.3-.8 7.5-2l-4.7-8.2zm2.7-4.6h9.5c0-5.5-3-10.3-7.5-12.9l-4.7 8.2c1.6.9 2.7 2.7 2.7 4.7z"/><circle opacity=".2" cx="161.8" cy="134.6" r="3.6"/><path opacity=".2" d="M159.1 129.9l-4.7-8.2c-4.5 2.6-7.5 7.4-7.5 12.9h9.5c-.1-2 1-3.8 2.7-4.7zm5.4 9.3c-.8.5-1.8.8-2.8.8-1 0-2-.3-2.8-.8l-4.7 8.2c2.2 1.3 4.8 2 7.5 2s5.3-.8 7.5-2l-4.7-8.2zm2.7-4.6h9.5c0-5.5-3-10.3-7.5-12.9l-4.7 8.2c1.6.9 2.7 2.7 2.7 4.7z"/><circle opacity=".2" cx="98.7" cy="174.7" r="3.6"/><path opacity=".2" d="M96 170.1l-4.7-8.2c-4.5 2.6-7.5 7.4-7.5 12.9h9.5c0-2.1 1.1-3.8 2.7-4.7zm5.5 9.3c-.8.5-1.8.8-2.8.8s-2-.3-2.8-.8l-4.7 8.2c2.2 1.3 4.8 2 7.5 2s5.3-.8 7.5-2l-4.7-8.2zm2.7-4.7h9.5c0-5.5-3-10.3-7.5-12.9l-4.7 8.2c1.6 1 2.7 2.7 2.7 4.7z"/><circle opacity=".2" cx="140.7" cy="174.7" r="3.6"/><path opacity=".2" d="M138 170.1l-4.7-8.2c-4.5 2.6-7.5 7.4-7.5 12.9h9.5c0-2.1 1.1-3.8 2.7-4.7zm5.5 9.3c-.8.5-1.8.8-2.8.8-1 0-2-.3-2.8-.8l-4.7 8.2c2.2 1.3 4.8 2 7.5 2s5.3-.8 7.5-2l-4.7-8.2zm2.7-4.7h9.5c0-5.5-3-10.3-7.5-12.9l-4.7 8.2c1.6 1 2.7 2.7 2.7 4.7z"/><circle opacity=".2" cx="119.8" cy="214.3" r="3.6"/><path opacity=".2" d="M117.1 209.7l-4.7-8.2c-4.5 2.6-7.5 7.4-7.5 12.9h9.5c-.1-2.1 1-3.8 2.7-4.7zm5.4 9.3c-.8.5-1.8.8-2.8.8-1 0-2-.3-2.8-.8l-4.7 8.2c2.2 1.3 4.8 2 7.5 2s5.3-.8 7.5-2l-4.7-8.2zm2.7-4.7h9.5c0-5.5-3-10.3-7.5-12.9l-4.7 8.2c1.6 1 2.7 2.7 2.7 4.7z"/><circle opacity=".2" cx="161.8" cy="214.3" r="3.6"/><path opacity=".2" d="M159.1 209.7l-4.7-8.2c-4.5 2.6-7.5 7.4-7.5 12.9h9.5c-.1-2.1 1-3.8 2.7-4.7zm5.4 9.3c-.8.5-1.8.8-2.8.8-1 0-2-.3-2.8-.8l-4.7 8.2c2.2 1.3 4.8 2 7.5 2s5.3-.8 7.5-2l-4.7-8.2zm2.7-4.7h9.5c0-5.5-3-10.3-7.5-12.9l-4.7 8.2c1.6 1 2.7 2.7 2.7 4.7z"/><circle opacity=".2" cx="98.7" cy="254.6" r="3.6"/><path opacity=".2" d="M96 249.9l-4.7-8.2c-4.5 2.6-7.5 7.4-7.5 12.9h9.5c0-2 1.1-3.8 2.7-4.7zm5.5 9.3c-.8.5-1.8.8-2.8.8s-2-.3-2.8-.8l-4.7 8.2c2.2 1.3 4.8 2 7.5 2s5.3-.8 7.5-2l-4.7-8.2zm2.7-4.6h9.5c0-5.5-3-10.3-7.5-12.9l-4.7 8.2c1.6.9 2.7 2.7 2.7 4.7z"/><circle opacity=".2" cx="140.7" cy="254.6" r="3.6"/><path opacity=".2" d="M138 249.9l-4.7-8.2c-4.5 2.6-7.5 7.4-7.5 12.9h9.5c0-2 1.1-3.8 2.7-4.7zm5.5 9.3c-.8.5-1.8.8-2.8.8-1 0-2-.3-2.8-.8l-4.7 8.2c2.2 1.3 4.8 2 7.5 2s5.3-.8 7.5-2l-4.7-8.2zm2.7-4.6h9.5c0-5.5-3-10.3-7.5-12.9l-4.7 8.2c1.6.9 2.7 2.7 2.7 4.7z"/><circle opacity=".2" cx="119.8" cy="296.4" r="3.6"/><path opacity=".2" d="M117.1 291.7l-4.7-8.2c-4.5 2.6-7.5 7.4-7.5 12.9h9.5c-.1-2 1-3.7 2.7-4.7zm5.4 9.4c-.8.5-1.8.8-2.8.8s-2-.3-2.8-.8l-4.7 8.2c2.2 1.3 4.8 2 7.5 2s5.3-.8 7.5-2l-4.7-8.2zm2.7-4.7h9.5c0-5.5-3-10.3-7.5-12.9l-4.7 8.2c1.6 1 2.7 2.7 2.7 4.7z"/><circle opacity=".2" cx="161.8" cy="296.4" r="3.6"/><path opacity=".2" d="M159.1 291.7l-4.7-8.2c-4.5 2.6-7.5 7.4-7.5 12.9h9.5c-.1-2 1-3.7 2.7-4.7zm5.4 9.4c-.8.5-1.8.8-2.8.8-1 0-2-.3-2.8-.8l-4.7 8.2c2.2 1.3 4.8 2 7.5 2s5.3-.8 7.5-2l-4.7-8.2zm2.7-4.7h9.5c0-5.5-3-10.3-7.5-12.9l-4.7 8.2c1.6 1 2.7 2.7 2.7 4.7z"/><circle opacity=".2" cx="182.7" cy="12.9" r="3.6"/><path opacity=".2" d="M180 8.2l-4.7-8.2c-4.5 2.6-7.5 7.4-7.5 12.9h9.5c0-2 1.1-3.7 2.7-4.7zm5.5 9.4c-.8.5-1.8.8-2.8.8-1 0-2-.3-2.8-.8l-4.7 8.2c2.2 1.3 4.8 2 7.5 2s5.3-.8 7.5-2l-4.7-8.2zm2.7-4.7h9.5c0-5.5-3-10.3-7.5-12.9l-4.7 8.2c1.6 1 2.7 2.7 2.7 4.7z"/><circle opacity=".2" cx="224.7" cy="12.9" r="3.6"/><path opacity=".2" d="M222 8.2l-4.7-8.2c-4.5 2.6-7.5 7.4-7.5 12.9h9.5c0-2 1.1-3.7 2.7-4.7zm5.5 9.4c-.8.5-1.8.8-2.8.8-1 0-2-.3-2.8-.8l-4.7 8.2c2.2 1.3 4.8 2 7.5 2s5.3-.8 7.5-2l-4.7-8.2zm2.7-4.7h9.5c0-5.5-3-10.3-7.5-12.9l-4.7 8.2c1.6 1 2.7 2.7 2.7 4.7z"/><circle opacity=".2" cx="203.8" cy="52.5" r="3.6"/><path opacity=".2" d="M201 47.8l-4.7-8.2c-4.5 2.6-7.5 7.4-7.5 12.9h9.5c0-2 1.1-3.7 2.7-4.7zm5.5 9.4c-.8.5-1.8.8-2.8.8-1 0-2-.3-2.8-.8l-4.7 8.2c2.2 1.3 4.8 2 7.5 2s5.3-.8 7.5-2l-4.7-8.2zm2.7-4.7h9.5c0-5.5-3-10.3-7.5-12.9l-4.7 8.2c1.6 1 2.7 2.7 2.7 4.7z"/><circle opacity=".2" cx="245.8" cy="52.5" r="3.6"/><path opacity=".2" d="M243 47.8l-4.7-8.2c-4.5 2.6-7.5 7.4-7.5 12.9h9.5c0-2 1.1-3.7 2.7-4.7zm5.5 9.4c-.8.5-1.8.8-2.8.8-1 0-2-.3-2.8-.8l-4.7 8.2c2.2 1.3 4.8 2 7.5 2s5.3-.8 7.5-2l-4.7-8.2zm2.7-4.7h9.5c0-5.5-3-10.3-7.5-12.9l-4.7 8.2c1.6 1 2.7 2.7 2.7 4.7z"/><circle opacity=".2" cx="182.7" cy="92.8" r="3.6"/><path opacity=".2" d="M180 88.1l-4.7-8.2c-4.5 2.6-7.5 7.4-7.5 12.9h9.5c0-2.1 1.1-3.8 2.7-4.7zm5.5 9.3c-.8.5-1.8.8-2.8.8-1 0-2-.3-2.8-.8l-4.7 8.2c2.2 1.3 4.8 2 7.5 2s5.3-.8 7.5-2l-4.7-8.2zm2.7-4.6h9.5c0-5.5-3-10.3-7.5-12.9l-4.7 8.2c1.6.9 2.7 2.6 2.7 4.7z"/><circle opacity=".2" cx="224.7" cy="92.8" r="3.6"/><path opacity=".2" d="M222 88.1l-4.7-8.2c-4.5 2.6-7.5 7.4-7.5 12.9h9.5c0-2.1 1.1-3.8 2.7-4.7zm5.5 9.3c-.8.5-1.8.8-2.8.8-1 0-2-.3-2.8-.8l-4.7 8.2c2.2 1.3 4.8 2 7.5 2s5.3-.8 7.5-2l-4.7-8.2zm2.7-4.6h9.5c0-5.5-3-10.3-7.5-12.9l-4.7 8.2c1.6.9 2.7 2.6 2.7 4.7z"/><circle opacity=".2" cx="203.8" cy="134.6" r="3.6"/><path opacity=".2" d="M201.1 129.9l-4.7-8.2c-4.5 2.6-7.5 7.4-7.5 12.9h9.5c-.1-2 1-3.7 2.7-4.7zm5.4 9.4c-.8.5-1.8.8-2.8.8-1 0-2-.3-2.8-.8l-4.7 8.2c2.2 1.3 4.8 2 7.5 2s5.3-.8 7.5-2l-4.7-8.2zm2.7-4.7h9.5c0-5.5-3-10.3-7.5-12.9l-4.7 8.2c1.6 1 2.7 2.7 2.7 4.7z"/><circle opacity=".2" cx="245.8" cy="134.6" r="3.6"/><path opacity=".2" d="M243.1 129.9l-4.7-8.2c-4.5 2.6-7.5 7.4-7.5 12.9h9.5c-.1-2 1-3.7 2.7-4.7zm5.4 9.4c-.8.5-1.8.8-2.8.8-1 0-2-.3-2.8-.8l-4.7 8.2c2.2 1.3 4.8 2 7.5 2s5.3-.8 7.5-2l-4.7-8.2zm2.7-4.7h9.5c0-5.5-3-10.3-7.5-12.9l-4.7 8.2c1.6 1 2.7 2.7 2.7 4.7z"/><circle opacity=".2" cx="182.7" cy="174.8" r="3.6"/><path opacity=".2" d="M180 170.1l-4.7-8.2c-4.5 2.6-7.5 7.4-7.5 12.9h9.5c0-2.1 1.1-3.8 2.7-4.7zm5.5 9.3c-.8.5-1.8.8-2.8.8s-2-.3-2.8-.8l-4.7 8.2c2.2 1.3 4.8 2 7.5 2s5.3-.8 7.5-2l-4.7-8.2zm2.7-4.6h9.5c0-5.5-3-10.3-7.5-12.9l-4.7 8.2c1.6.9 2.7 2.6 2.7 4.7z"/><circle opacity=".2" cx="224.7" cy="174.8" r="3.6"/><path opacity=".2" d="M222 170.1l-4.7-8.2c-4.5 2.6-7.5 7.4-7.5 12.9h9.5c0-2.1 1.1-3.8 2.7-4.7zm5.5 9.3c-.8.5-1.8.8-2.8.8-1 0-2-.3-2.8-.8l-4.7 8.2c2.2 1.3 4.8 2 7.5 2s5.3-.8 7.5-2l-4.7-8.2zm2.7-4.6h9.5c0-5.5-3-10.3-7.5-12.9l-4.7 8.2c1.6.9 2.7 2.6 2.7 4.7z"/><circle opacity=".2" cx="203.8" cy="214.4" r="3.6"/><path opacity=".2" d="M201.1 209.7l-4.7-8.2c-4.5 2.6-7.5 7.4-7.5 12.9h9.5c-.1-2.1 1-3.8 2.7-4.7zm5.4 9.3c-.8.5-1.8.8-2.8.8-1 0-2-.3-2.8-.8l-4.7 8.2c2.2 1.3 4.8 2 7.5 2s5.3-.8 7.5-2l-4.7-8.2zm2.7-4.6h9.5c0-5.5-3-10.3-7.5-12.9l-4.7 8.2c1.6.9 2.7 2.6 2.7 4.7z"/><circle opacity=".2" cx="245.8" cy="214.4" r="3.6"/><path opacity=".2" d="M243.1 209.7l-4.7-8.2c-4.5 2.6-7.5 7.4-7.5 12.9h9.5c-.1-2.1 1-3.8 2.7-4.7zm5.4 9.3c-.8.5-1.8.8-2.8.8-1 0-2-.3-2.8-.8l-4.7 8.2c2.2 1.3 4.8 2 7.5 2s5.3-.8 7.5-2l-4.7-8.2zm2.7-4.6h9.5c0-5.5-3-10.3-7.5-12.9l-4.7 8.2c1.6.9 2.7 2.6 2.7 4.7z"/><circle opacity=".2" cx="182.7" cy="254.6" r="3.6"/><path opacity=".2" d="M180 249.9l-4.7-8.2c-4.5 2.6-7.5 7.4-7.5 12.9h9.5c0-2 1.1-3.8 2.7-4.7zm5.5 9.3c-.8.5-1.8.8-2.8.8-1 0-2-.3-2.8-.8l-4.7 8.2c2.2 1.3 4.8 2 7.5 2s5.3-.8 7.5-2l-4.7-8.2zm2.7-4.6h9.5c0-5.5-3-10.3-7.5-12.9l-4.7 8.2c1.6.9 2.7 2.7 2.7 4.7z"/><circle opacity=".2" cx="224.7" cy="254.6" r="3.6"/><path opacity=".2" d="M222 249.9l-4.7-8.2c-4.5 2.6-7.5 7.4-7.5 12.9h9.5c0-2 1.1-3.8 2.7-4.7zm5.5 9.3c-.8.5-1.8.8-2.8.8-1 0-2-.3-2.8-.8l-4.7 8.2c2.2 1.3 4.8 2 7.5 2s5.3-.8 7.5-2l-4.7-8.2zm2.7-4.6h9.5c0-5.5-3-10.3-7.5-12.9l-4.7 8.2c1.6.9 2.7 2.7 2.7 4.7z"/><circle opacity=".2" cx="203.8" cy="296.4" r="3.6"/><path opacity=".2" d="M201.1 291.7l-4.7-8.2c-4.5 2.6-7.5 7.4-7.5 12.9h9.5c-.1-2 1-3.7 2.7-4.7zm5.4 9.4c-.8.5-1.8.8-2.8.8s-2-.3-2.8-.8l-4.7 8.2c2.2 1.3 4.8 2 7.5 2s5.3-.8 7.5-2l-4.7-8.2zm2.7-4.7h9.5c0-5.5-3-10.3-7.5-12.9l-4.7 8.2c1.6 1 2.7 2.7 2.7 4.7z"/><circle opacity=".2" cx="245.8" cy="296.4" r="3.6"/><path opacity=".2" d="M243.1 291.8l-4.7-8.2c-4.5 2.6-7.5 7.4-7.5 12.9h9.5c-.1-2.1 1-3.8 2.7-4.7zm5.4 9.3c-.8.5-1.8.8-2.8.8-1 0-2-.3-2.8-.8l-4.7 8.2c2.2 1.3 4.8 2 7.5 2s5.3-.8 7.5-2l-4.7-8.2zm2.7-4.7h9.5c0-5.5-3-10.3-7.5-12.9l-4.7 8.2c1.6 1 2.7 2.7 2.7 4.7z"/><circle opacity=".2" cx="266.6" cy="12.9" r="3.6"/><path opacity=".2" d="M263.9 8.2l-4.8-8.2c-4.5 2.6-7.5 7.4-7.5 12.9h9.5c0-2 1.2-3.7 2.8-4.7zm5.4 9.4c-.8.5-1.8.8-2.8.8-1 0-2-.3-2.8-.8l-4.7 8.2c2.2 1.3 4.8 2 7.5 2s5.3-.8 7.5-2l-4.7-8.2zm2.7-4.7h9.5c0-5.5-3-10.3-7.5-12.9l-4.7 8.2c1.6 1 2.7 2.7 2.7 4.7z"/><circle opacity=".2" cx="308.6" cy="12.9" r="3.6"/><path opacity=".2" d="M305.9 8.2l-4.8-8.2c-4.5 2.6-7.5 7.4-7.5 12.9h9.5c0-2 1.2-3.7 2.8-4.7zm5.4 9.4c-.8.5-1.8.8-2.8.8s-2-.3-2.8-.8l-4.7 8.2c2.2 1.3 4.8 2 7.5 2s5.3-.8 7.5-2l-4.7-8.2zm2.7-4.7h9.5c0-5.5-3-10.3-7.5-12.9l-4.7 8.2c1.6 1 2.7 2.7 2.7 4.7z"/><circle opacity=".2" cx="287.6" cy="52.5" r="3.6"/><path opacity=".2" d="M284.9 47.8l-4.7-8.2c-4.5 2.6-7.5 7.4-7.5 12.9h9.5c0-2 1.1-3.7 2.7-4.7zm5.5 9.4c-.8.5-1.8.8-2.8.8s-2-.3-2.8-.8l-4.7 8.2c2.2 1.3 4.8 2 7.5 2s5.3-.8 7.5-2l-4.7-8.2zm2.6-4.7h9.5c0-5.5-3-10.3-7.5-12.9l-4.7 8.2c1.6 1 2.7 2.7 2.7 4.7z"/><circle opacity=".2" cx="266.6" cy="92.8" r="3.6"/><path opacity=".2" d="M263.9 88.1l-4.7-8.2c-4.5 2.6-7.5 7.4-7.5 12.9h9.5c-.1-2.1 1.1-3.8 2.7-4.7zm5.4 9.3c-.8.5-1.8.8-2.8.8s-2-.3-2.8-.8l-4.7 8.2c2.2 1.3 4.8 2 7.5 2s5.3-.8 7.5-2l-4.7-8.2zm2.7-4.6h9.5c0-5.5-3-10.3-7.5-12.9l-4.7 8.2c1.6.9 2.7 2.6 2.7 4.7z"/><circle opacity=".2" cx="308.6" cy="92.8" r="3.6"/><path opacity=".2" d="M305.9 88.1l-4.7-8.2c-4.5 2.6-7.5 7.4-7.5 12.9h9.5c-.1-2.1 1.1-3.8 2.7-4.7zm5.4 9.3c-.8.5-1.8.8-2.8.8s-2-.3-2.8-.8l-4.7 8.2c2.2 1.3 4.8 2 7.5 2s5.3-.8 7.5-2l-4.7-8.2zm2.7-4.6h9.5c0-5.5-3-10.3-7.5-12.9l-4.7 8.2c1.6.9 2.7 2.6 2.7 4.7z"/><circle opacity=".2" cx="287.6" cy="134.6" r="3.6"/><path opacity=".2" d="M284.9 129.9l-4.7-8.2c-4.5 2.6-7.5 7.4-7.5 12.9h9.5c0-2 1.1-3.7 2.7-4.7zm5.5 9.4c-.8.5-1.8.8-2.8.8s-2-.3-2.8-.8l-4.7 8.2c2.2 1.3 4.8 2 7.5 2s5.3-.8 7.5-2l-4.7-8.2zm2.6-4.7h9.5c0-5.5-3-10.3-7.5-12.9l-4.7 8.2c1.6 1 2.7 2.7 2.7 4.7z"/><circle opacity=".2" cx="266.6" cy="174.8" r="3.6"/><path opacity=".2" d="M263.9 170.1l-4.7-8.2c-4.5 2.6-7.5 7.4-7.5 12.9h9.5c-.1-2.1 1.1-3.8 2.7-4.7zm5.4 9.3c-.8.5-1.8.8-2.8.8s-2-.3-2.8-.8l-4.7 8.2c2.2 1.3 4.8 2 7.5 2s5.3-.8 7.5-2l-4.7-8.2zm2.7-4.6h9.5c0-5.5-3-10.3-7.5-12.9l-4.7 8.2c1.6.9 2.7 2.6 2.7 4.7z"/><circle opacity=".2" cx="308.6" cy="174.8" r="3.6"/><path opacity=".2" d="M305.9 170.1l-4.7-8.2c-4.5 2.6-7.5 7.4-7.5 12.9h9.5c-.1-2.1 1.1-3.8 2.7-4.7zm5.4 9.3c-.8.5-1.8.8-2.8.8-1 0-2-.3-2.8-.8l-4.7 8.2c2.2 1.3 4.8 2 7.5 2s5.3-.8 7.5-2l-4.7-8.2zm2.7-4.6h9.5c0-5.5-3-10.3-7.5-12.9l-4.7 8.2c1.6.9 2.7 2.6 2.7 4.7z"/><circle opacity=".2" cx="287.6" cy="214.4" r="3.6"/><path opacity=".2" d="M284.9 209.7l-4.7-8.2c-4.5 2.6-7.5 7.4-7.5 12.9h9.5c0-2.1 1.1-3.8 2.7-4.7zm5.5 9.3c-.8.5-1.8.8-2.8.8s-2-.3-2.8-.8l-4.7 8.2c2.2 1.3 4.8 2 7.5 2s5.3-.8 7.5-2l-4.7-8.2zm2.6-4.6h9.5c0-5.5-3-10.3-7.5-12.9l-4.7 8.2c1.6.9 2.7 2.6 2.7 4.7z"/><circle opacity=".2" cx="266.6" cy="254.6" r="3.6"/><path opacity=".2" d="M263.9 249.9l-4.7-8.2c-4.5 2.6-7.5 7.4-7.5 12.9h9.5c-.1-2 1.1-3.8 2.7-4.7zm5.4 9.3c-.8.5-1.8.8-2.8.8-1 0-2-.3-2.8-.8l-4.7 8.2c2.2 1.3 4.8 2 7.5 2s5.3-.8 7.5-2l-4.7-8.2zm2.7-4.6h9.5c0-5.5-3-10.3-7.5-12.9l-4.7 8.2c1.6.9 2.7 2.7 2.7 4.7z"/><circle opacity=".2" cx="308.6" cy="254.6" r="3.6"/><path opacity=".2" d="M305.9 249.9l-4.7-8.2c-4.5 2.6-7.5 7.4-7.5 12.9h9.5c0-2 1.1-3.8 2.7-4.7zm5.4 9.3c-.8.5-1.8.8-2.8.8-1 0-2-.3-2.8-.8l-4.7 8.2c2.2 1.3 4.8 2 7.5 2s5.3-.8 7.5-2l-4.7-8.2zm2.7-4.6h9.5c0-5.5-3-10.3-7.5-12.9l-4.7 8.2c1.6.9 2.7 2.7 2.7 4.7z"/><circle opacity=".2" cx="287.6" cy="296.4" r="3.6"/><path opacity=".2" d="M284.9 291.7l-4.7-8.2c-4.5 2.6-7.5 7.4-7.5 12.9h9.5c0-2 1.1-3.7 2.7-4.7zm5.5 9.4c-.8.5-1.8.8-2.8.8-1 0-2-.3-2.8-.8l-4.7 8.2c2.2 1.3 4.8 2 7.5 2s5.3-.8 7.5-2l-4.7-8.2zm2.6-4.7h9.5c0-5.5-3-10.3-7.5-12.9l-4.7 8.2c1.6 1 2.7 2.7 2.7 4.7z"/><circle opacity=".2" cx="333.4" cy="51.8" r="3.6"/><path opacity=".2" d="M330.7 47.1l-4.7-8.2c-4.5 2.6-7.5 7.4-7.5 12.9h9.5c0-2 1.1-3.7 2.7-4.7zm5.5 9.4c-.8.5-1.8.8-2.8.8s-2-.3-2.8-.8l-4.7 8.2c2.2 1.3 4.8 2 7.5 2s5.3-.8 7.5-2l-4.7-8.2zm2.7-4.7h9.5c0-5.5-3-10.3-7.5-12.9l-4.7 8.2c1.5 1 2.7 2.7 2.7 4.7z"/><circle opacity=".2" cx="333.4" cy="133.9" r="3.6"/><path opacity=".2" d="M330.7 129.2l-4.7-8.2c-4.5 2.6-7.5 7.4-7.5 12.9h9.5c0-2 1.1-3.8 2.7-4.7zm5.5 9.3c-.8.5-1.8.8-2.8.8-1 0-2-.3-2.8-.8l-4.7 8.2c2.2 1.3 4.8 2 7.5 2s5.3-.8 7.5-2l-4.7-8.2zm2.7-4.6h9.5c0-5.5-3-10.3-7.5-12.9l-4.7 8.2c1.5.9 2.7 2.7 2.7 4.7z"/><circle opacity=".2" cx="333.4" cy="213.6" r="3.6"/><path opacity=".2" d="M330.7 208.9l-4.7-8.2c-4.5 2.6-7.5 7.4-7.5 12.9h9.5c0-2 1.1-3.7 2.7-4.7zm5.5 9.4c-.8.5-1.8.8-2.8.8-1 0-2-.3-2.8-.8l-4.7 8.2c2.2 1.3 4.8 2 7.5 2s5.3-.8 7.5-2l-4.7-8.2zm2.7-4.7h9.5c0-5.5-3-10.3-7.5-12.9l-4.7 8.2c1.5 1 2.7 2.7 2.7 4.7z"/><circle opacity=".2" cx="333.4" cy="295.7" r="3.6"/><path opacity=".2" d="M330.7 291l-4.7-8.2c-4.5 2.6-7.5 7.4-7.5 12.9h9.5c0-2 1.1-3.7 2.7-4.7zm5.5 9.4c-.8.5-1.8.8-2.8.8s-2-.3-2.8-.8l-4.7 8.2c2.2 1.3 4.8 2 7.5 2s5.3-.8 7.5-2l-4.7-8.2zm2.7-4.7h9.5c0-5.5-3-10.3-7.5-12.9l-4.7 8.2c1.5 1 2.7 2.7 2.7 4.7z"/></svg>