<svg xmlns="http://www.w3.org/2000/svg" viewBox="0 0 54 47.7" enable-background="new 0 0 54 47.7"><path fill="#FACD41" d="M27 47.7v-47.7c-1.3 0-2.4.7-3 1.8l-23.4 40.6c-.4.6-.6 1.2-.6 1.9 0 1.9 1.5 3.4 3.4 3.4h23.6z"/><path fill="#FAAF42" d="M27 47.7v-47.7c1.3 0 2.4.7 3 1.8l23.4 40.6c.4.5.6 1.2.6 1.9 0 1.9-1.5 3.4-3.4 3.4h-23.6z"/><circle fill="#010101" cx="27" cy="30.2" r="3.2"/><path fill="#3A3A40" d="M24.7 26.1l-4.2-7.2c-3.9 2.3-6.5 6.5-6.5 11.3h8.3c0-1.8.9-3.3 2.4-4.1z"/><path fill="#010101" d="M29.4 34.3c-.7.4-1.5.7-2.4.7s-1.7-.3-2.4-.7l-4.1 7.2c1.9 1.1 4.2 1.8 6.6 1.8 2.4 0 4.6-.7 6.6-1.8l-4.3-7.2zm2.4-4.1h8.3c0-4.8-2.6-9-6.5-11.3l-4.1 7.2c1.3.8 2.3 2.3 2.3 4.1z"/><path fill="#3A3A40" d="M27 27c-1.8 0-3.2 1.4-3.2 3.2 0 1.8 1.4 3.2 3.2 3.2v-6.4zm0 7.9c-.9 0-1.7-.3-2.4-.7l-4.1 7.2c1.9 1.1 4.2 1.8 6.6 1.8v-8.3z"/></svg>