<svg xmlns="http://www.w3.org/2000/svg" viewBox="0 0 313.3 181.7" enable-background="new 0 0 313.3 181.7"><path fill="#E7E7E7" d="M193 26h15.5v60.9h-15.5zm35.6 12.8h15.5v60.9h-15.5z"/><path fill="#087B87" d="M168 80.1h117.6v85.2h-117.6z"/><path d="M213.9 80.1h-35.6v-35.6zm35.8 0h-35.5v-35.6zm35.9 0h-35.6v-35.6z" fill="#065B5F"/><path fill="#EDC41B" d="M188.8 88h16.1v16.1h-16.1zm33.3 0h16.1v16.1h-16.1z"/><path fill="#152734" d="M188.8 113.2h16.1v16.1h-16.1zm33.3 0h16.1v16.1h-16.1z"/><path fill="#EDC41B" d="M255.4 113.2h16.1v16.1h-16.1z"/><path fill="#152734" d="M188.8 138.5h16.1v16.1h-16.1z"/><path fill="#F15B2A" d="M193 26h15.5v7.7h-15.5z"/><path fill="#EE302A" d="M228.6 38.8h15.5v7.7h-15.5z"/><path fill="#EDC41B" d="M255.4 88h16.1v16.1h-16.1z"/><path fill="#2C8C68" d="M297.6 113.6c-4.4 0-7.9 3.4-8.2 7.7h-3.8v1.9h3.9c.6 3.9 4 6.9 8.1 6.9 4.6 0 8.2-3.7 8.2-8.2 0-4.6-3.7-8.3-8.2-8.3z"/><circle fill="#EDC41B" cx="297.6" cy="121.9" r="4.7"/><path fill="#152734" d="M113.8 8h55v157.2h-55z"/><path fill="#F176AA" d="M122.3 16.8h9.3v9.3h-9.3z"/><path fill="#FAAF42" d="M136.6 16.8h9.3v9.3h-9.3z"/><path fill="#F176AA" d="M152 16.8h9.3v9.3h-9.3z"/><path fill="#FAAF42" d="M122.3 34.3h9.3v9.3h-9.3zm14.3 0h9.3v9.3h-9.3z"/><path fill="#F176AA" d="M152 34.3h9.3v9.3h-9.3z"/><path fill="#FAAF42" d="M122.3 51.8h9.3v9.3h-9.3z"/><path fill="#F176AA" d="M136.6 51.8h9.3v9.3h-9.3z"/><path fill="#FAAF42" d="M152 51.8h9.3v9.3h-9.3z"/><path fill="#2DB674" d="M122.3 69.3h9.3v9.3h-9.3z"/><path fill="#FAAF42" d="M136.6 69.3h9.3v9.3h-9.3zm15.4 0h9.3v9.3h-9.3zm-29.7 17.5h9.3v9.3h-9.3zm14.3 0h9.3v9.3h-9.3zm15.4 0h9.3v9.3h-9.3zm-15.4 17.5h9.3v9.3h-9.3z"/><path fill="#2DB674" d="M152 104.3h9.3v9.3h-9.3zm-15.4 17.5h9.3v9.3h-9.3zm15.4 0h9.3v9.3h-9.3z"/><path fill="#152734" d="M122.3 0h23.7v9.4h-23.7z"/><path fill="#754D29" d="M81.5 81.6h-15.9 15.9z"/><path fill="#48515C" d="M80.5 73.9h-14l3.2-13.6h7.6z"/><path fill="#2DB674" d="M20.5 104.3h110v61h-110zm33.8-30.4h43.8v33.2h-43.8z"/><path fill="#016F55" d="M59.5 78.6h8.8v25.7h-8.8z"/><path fill="#1F4B51" d="M71.8 78.6h8.8v25.7h-8.8z"/><path fill="#016F55" d="M84.2 78.6h8.8v25.7h-8.8z"/><path fill="#A5D389" d="M50.9 135.3c-8.1 0-14.7 6.6-14.7 14.7v16.1h29.4v-16.1c0-8.1-6.6-14.7-14.7-14.7zm44.5.1c-8.1 0-14.7 6.6-14.7 14.7v15.2h29.3v-15.2c0-8.1-6.5-14.7-14.6-14.7z"/><circle fill="#152734" cx="42.2" cy="120" r="6.4"/><circle fill="#152734" cx="61.9" cy="120" r="6.4"/><circle fill="#152734" cx="81.7" cy="120" r="6.4"/><circle fill="#152734" cx="101.5" cy="120" r="6.4"/><path fill="#152734" d="M50.9 135.3c-8.1 0-14.7 6.6-14.7 14.7v4h29.4v-4c0-8.1-6.6-14.7-14.7-14.7zm44.5 0c-8.1 0-14.7 6.6-14.7 14.7v4h29.3v-4c0-8.1-6.5-14.7-14.6-14.7z"/><path fill="#A65A71" d="M20.5 140.4v-1.7h-4.7v-6.3h-10.3v24.5h10.3v-6h4.7v-1.7h-4.7v-8.8z"/><path fill="#152734" d="M210.7 135.4h89.2v29.8h-89.2z"/><path fill="#A5D389" d="M217.9 142.2h10v16.2h-10z"/><path fill="#2DB674" d="M234.2 142.2h10v16.2h-10z"/><path fill="#A5D389" d="M250.4 142.2h10v16.2h-10z"/><path fill="#2DB674" d="M266.6 142.2h10v16.2h-10z"/><path fill="#A5D389" d="M282.8 142.2h10v16.2h-10z"/><path fill="#010101" d="M115.1 119.5h12.5v29.2h-12.5z"/><circle fill="#EE2D2A" cx="121.3" cy="125.3" r="3.4"/><circle fill="#FAAF42" cx="121.3" cy="134.5" r="3.4"/><circle fill="#3BB34A" cx="121.3" cy="143.6" r="3.4"/><path fill="#48515C" d="M305.1 165.2h-296.9c-4.5 0-8.2 3.7-8.2 8.2 0 4.5 3.7 8.2 8.2 8.2h296.9c4.5 0 8.2-3.7 8.2-8.2 0-4.5-3.6-8.2-8.2-8.2z"/><path fill="#fff" d="M20.5 171h19.2v4.9h-19.2zm37.2 0h19.2v4.9h-19.2zm37.2 0h19.2v4.9h-19.2zm37.1 0h19.2v4.9h-19.2zm37.2 0h19.2v4.9h-19.2zm37.2 0h19.2v4.9h-19.2zm37.2 0h19.2v4.9h-19.2zm37.1 0h19.2v4.9h-19.2z"/><path fill="#D876AA" d="M5.5 132.4h10.3v24.5h-10.3z"/><path fill="#A65A71" d="M7.9 134.8h5.6v19.6h-5.6z"/></svg>